# File produced by Open Asset Import Library (http://www.assimp.sf.net)
# (assimp v3.1.113183908)

mtllib GameJam_YellowRockBig.mtl

# vertex positions
v 71.326149 0.000000 -69.844948
v -13.656973 0.000000 -65.248795
v 85.079750 0.000000 -129.789505
v 69.426712 29.579224 -73.946526
v 36.584393 69.078407 -127.457664
v 34.210869 61.883034 -136.544342
v 22.185905 63.562710 -136.544342
v -10.128851 36.129227 -136.544342
v -7.942278 52.021366 -127.587074
v 5.399767 57.132366 -136.544342
v 25.033806 22.622482 -150.173218
v 64.208496 0.000000 -150.173218
v 17.611771 0.000000 -150.173218
v 53.132339 75.417511 -102.709328
v 60.478775 27.811384 -140.755203
v 11.857756 59.606258 -74.787521
v -12.568388 50.249218 -90.913643
v 17.726738 31.209007 -64.876297
v 30.114742 0.000000 -51.645458
v 42.882557 24.299685 -59.198036
v 48.805122 48.599365 -66.750610
v -27.624933 0.000000 -127.852753
v -25.540949 23.021029 -79.760117
v 63.538895 4.559296 -150.173218
v 36.917458 25.044939 -150.173218
v 43.318905 71.658234 -78.104370
v 54.532990 65.880478 -84.392502
v 53.132339 75.417511 -93.452873
v 2.134521 44.921051 -69.885223
v -28.645761 0.000000 -79.760117
v -9.025061 0.000000 -142.381256
v 79.141823 7.779446 -135.762299
v 73.342476 23.588686 -130.582520
v 60.667336 59.087387 -98.864098
v 43.905643 0.000000 -56.305271

# UV coordinates
vt -0.325134 1.179579
vt -0.643419 1.196793
vt -0.273623 0.955070
vt 0.762998 0.123995
vt 0.973049 0.536356
vt 0.680638 0.238017
vt 0.551837 0.586038
vt 0.567184 0.634001
vt 0.508576 0.646338
vt 0.338028 0.747014
vt 0.365687 0.657315
vt 0.435333 0.674370
vt 0.577289 0.821363
vt 0.885418 0.776063
vt 0.541582 0.939811
vt 0.579937 0.460651
vt 0.771178 0.657931
vt 0.368257 0.388305
vt 0.281579 0.485123
vt 0.351205 0.246013
vt 0.379942 0.047899
vt 0.495057 0.160230
vt 0.536786 0.265982
vt 0.144959 0.803573
vt 0.129512 0.447389
vt 0.864856 0.758193
vt 0.646549 0.774003
vt 0.514602 0.376362
vt 0.571305 0.379446
vt 0.569504 0.426216
vt 0.302567 0.348770
vt 0.020849 0.454184
vt 0.311532 0.915432
vt 0.079525 0.272899
vt -0.626071 0.907910
vt -0.699556 1.142444
vt -0.695733 0.962324
vt 0.914357 0.595224
vt 0.832977 0.573810
vt 0.642532 0.425942
vt 0.514155 0.037880
vt -0.427831 1.230289
vt -0.479482 1.247741
vt -0.526309 0.878727
vt -0.351791 0.878727

# vertex normals
vn 0.000000 -1.000000 -0.000000
vn 0.970433 0.093191 0.222655
vn 0.929318 0.368497 -0.024030
vn 0.967275 0.185943 0.172640
vn 0.106954 0.765689 -0.634256
vn 0.106954 0.765689 -0.634256
vn 0.106954 0.765689 -0.634256
vn -0.610106 0.451080 -0.651381
vn -0.610106 0.451080 -0.651381
vn -0.610106 0.451080 -0.651381
vn 0.000000 0.000000 -1.000000
vn 0.622110 0.542207 -0.564792
vn 0.622110 0.542207 -0.564792
vn 0.756572 0.511795 -0.407019
vn 0.622605 0.543958 -0.562558
vn -0.357726 0.933827 0.000000
vn -0.357726 0.933827 0.000000
vn -0.357726 0.933827 0.000000
vn -0.118614 0.336023 0.934355
vn 0.128482 0.225071 0.965834
vn 0.187749 0.239764 0.952504
vn 0.226591 0.245032 0.942664
vn -0.903379 0.400743 -0.152682
vn -0.921856 0.356911 -0.150985
vn -0.921985 0.356583 -0.150971
vn 0.489900 0.401854 -0.773635
vn 0.301470 0.391765 -0.869273
vn 0.486618 0.382225 -0.785562
vn 0.118921 0.337926 -0.933630
vn 0.118082 0.352174 -0.928456
vn 0.312034 0.349739 -0.883356
vn 0.605415 0.510391 0.610716
vn 0.788060 0.323723 0.523608
vn 0.813101 0.345588 0.468439
vn 0.864455 0.437163 0.248204
vn -0.078762 0.401780 0.912343
vn -0.204857 0.261150 0.943310
vn -0.080404 0.367174 0.926671
vn -0.990808 0.133629 -0.021031
vn -0.990808 0.133629 -0.021031
vn -0.614502 0.547193 0.568303
vn -0.605592 0.560052 0.565331
vn -0.591941 0.579075 0.560606
vn -0.129514 0.285641 -0.949545
vn -0.043565 0.325743 -0.944454
vn -0.279577 0.091724 -0.955732
vn -0.452770 0.118669 -0.883695
vn -0.296987 0.120875 -0.947200
vn -0.435764 0.224946 0.871498
vn -0.564576 0.211467 0.797832
vn -0.624814 0.531840 0.571623
vn -0.935172 0.321155 -0.149375
vn -0.935172 0.321155 -0.149375
vn -0.420037 0.132217 -0.897824
vn -0.611982 0.107879 -0.783480
vn 0.664311 0.097564 -0.741061
vn 0.695850 -0.005389 -0.718167
vn 0.672479 0.073379 -0.736470
vn 0.679216 0.535038 -0.502394
vn 0.908001 0.418967 0.000000
vn 0.937318 0.268841 0.221720
vn -0.084815 0.255376 0.963115
vn 0.384786 0.131667 0.913567
vn 0.450983 0.148127 0.880155
vn -0.222569 0.212459 0.951485
vn 0.950210 0.309866 0.032921
vn 0.887040 0.421815 0.187702
vn 0.848772 0.464808 0.252068
vn 0.686607 0.577152 0.442115
vn 0.698613 -0.015961 -0.715322
vn 0.610794 0.392987 -0.687380
vn 0.560292 0.436231 -0.704113
vn -0.192933 0.263505 -0.945168
vn -0.285258 0.275900 0.917882
vn 0.855416 0.415230 -0.309592
vn 0.895079 0.443983 -0.041379
vn -0.357725 0.933827 0.000000
vn -0.357725 0.933827 0.000000
vn -0.357725 0.933827 0.000000
vn -0.357726 0.933827 -0.000000
vn -0.357725 0.933827 -0.000000
vn -0.357725 0.933827 -0.000000
vn 0.912173 0.401038 -0.084317
vn 0.437668 0.151012 0.886364
vn -0.282607 0.208945 -0.936203

# Mesh
g Box001
usemtl DefaultMaterial
f 1/1/1 2/2/1 3/3/1
f 1/4/2 3/5/3 4/6/4
f 5/7/5 6/8/6 7/9/7
f 8/10/8 9/11/9 10/12/10
f 11/13/11 12/14/11 13/15/11
f 14/16/14 15/17/15 6/8/12 5/7/13
f 16/18/16 9/11/17 17/19/18
f 20/22/21 21/23/22 18/20/19 19/21/20
f 22/24/23 23/25/24 8/10/25
f 24/26/26 25/27/27 15/17/28
f 25/27/29 6/8/30 15/17/31
f 27/29/34 28/30/35 26/28/32 21/23/33
f 21/23/38 26/28/36 16/18/36 29/31/37
f 30/32/39 23/25/40 22/24/39
f 17/19/41 29/31/42 16/18/43
f 11/13/44 7/9/45 25/27/29
f 13/15/46 31/33/47 11/13/48
f 2/34/49 29/31/37 23/25/50 30/32/50
f 29/31/42 17/19/41 23/25/51
f 9/11/53 8/10/25 23/25/24 17/19/52
f 8/10/54 31/33/47 22/24/55
f 31/35/1 2/2/1 30/36/1 22/37/1
f 24/26/56 32/38/57 12/14/58
f 15/17/15 14/16/14 33/39/59
f 14/16/60 28/30/35 34/40/61
f 28/30/35 27/29/34 34/40/61
f 27/29/34 21/23/33 34/40/61
f 21/23/38 29/31/37 18/20/62
f 20/22/21 35/41/63 4/6/64
f 2/34/49 18/20/65 29/31/37
f 20/22/21 19/21/20 35/41/63
f 33/39/66 34/40/67 4/6/68
f 4/6/68 34/40/67 21/23/69
f 4/6/64 21/23/22 20/22/21
f 3/5/70 12/14/58 32/38/57
f 24/26/26 33/39/71 32/38/72
f 11/13/44 10/12/73 7/9/45
f 2/34/49 19/21/74 18/20/65
f 35/42/1 19/43/1 2/2/1
f 1/1/1 35/42/1 2/2/1
f 2/2/1 31/35/1 13/44/1
f 2/2/1 13/44/1 12/45/1
f 2/2/1 12/45/1 3/3/1
f 3/5/3 32/38/75 33/39/76
f 3/5/3 33/39/76 4/6/4
f 11/13/11 25/27/11 24/26/11
f 11/13/11 24/26/11 12/14/11
f 26/28/77 28/30/78 14/16/79
f 16/18/16 26/28/77 14/16/79
f 16/18/16 14/16/79 5/7/80
f 16/18/16 5/7/80 7/9/81
f 16/18/16 7/9/81 10/12/82
f 16/18/16 10/12/82 9/11/17
f 7/9/45 6/8/30 25/27/29
f 31/33/47 8/10/54 11/13/48
f 14/16/14 34/40/83 33/39/59
f 35/41/63 1/4/84 4/6/64
f 24/26/26 15/17/28 33/39/71
f 11/13/44 8/10/85 10/12/73
